<svg xmlns="http://www.w3.org/2000/svg" xmlns:xlink="http://www.w3.org/1999/xlink" xmlns:inkscape="http://www.inkscape.org/namespaces/inkscape" version="1.1" viewBox="163 428 740 223" aria-hidden="true" focusable="false">
<defs>
<clipPath id="clip_1">
<path transform="matrix(1,0,0,-1,0,1080)" d="M0 1080H1080V0H0Z"/>
</clipPath>
<clipPath id="clip_2">
<path transform="matrix(1,0,0,-1,0,1080)" d="M2174.58 1089.76H1090.0001V2167.2843H2174.58Z"/>
</clipPath>
<path id="font_3_4" d="M.6199951 0 .54600527 .16999817H.17700196L.104003909 0H.0030059815L.31399537 .69999697H.41400147L.723999 0H.6199951M.21499634 .25700379H.5090027L.36099244 .5970001 .21499634 .25700379Z"/>
<path id="font_3_260" d="M.55200198 0 .41299439 .22000122C.39700318 .21866863 .3840027 .21800232 .37399293 .21800232H.19599915V0H.1000061V.69999697H.37399293C.46266685 .69999697 .53116866 .6794942 .5794983 .63848879 .62782797 .59749349 .6519928 .5393321 .6519928 .46400453 .6519928 .40733338 .63882449 .35966493 .6124878 .32099916 .5861613 .28233338 .54832968 .2543335 .49899293 .23699951L.66200259 0H.55200198M.37399293 .30499269C.43400065 .30499269 .48000083 .318161 .5119934 .34449769 .54399618 .37083436 .55999758 .40966798 .55999758 .46099855 .55999758 .5109965 .54399618 .5488281 .5119934 .5744934 .48000083 .6001689 .43400065 .6130066 .37399293 .6130066H.19599915V.30499269H.37399293Z"/>
<path id="font_3_258" d="M.81500247-.070999149C.7883301-.09499613 .7589925-.11366272 .72698977-.1269989 .69499716-.14033509 .66333517-.14700318 .6320038-.14700318 .5900014-.14700318 .5503337-.13499959 .5130005-.11099243 .47566734-.086995448 .44200135-.05233256 .41200257-.007003784H.40600587C.33866374-.007003784 .27682496 .008829753 .2204895 .040496828 .16416423 .0721639 .11966451 .11549886 .08699036 .17050171 .054326375 .22550456 .037994386 .28566996 .037994386 .35099793 .037994386 .41633607 .054326375 .47617088 .08699036 .5305023 .11966451 .5848338 .16400147 .6276652 .22000122 .6589966 .27600099 .69032797 .33800254 .70599368 .40600587 .70599368 .4733378 .70599368 .53516647 .69032797 .5914917 .6589966 .64782717 .6276652 .69232687 .5848338 .72499087 .5305023 .757665 .47617088 .7740021 .41633607 .7740021 .35099793 .7740021 .29700218 .76283267 .2466685 .7404938 .19999695 .7181651 .15333557 .68733218 .1133372 .647995 .08000183 .608668 .046666463 .56366989 .022664389 .5130005 .0079956059 .55699667-.03933716 .6003316-.06300354 .6430054-.06300354 .68167117-.06300354 .7256673-.04266866 .7749939-.0019989014L.81500247-.070999149M.1349945 .35099793C.1349945 .30166117 .14732869 .2563273 .17199707 .21499634 .19666545 .17366536 .22983296 .14083354 .27149964 .116500858 .3131663 .092168178 .3583323 .08000183 .40699769 .08000183 .45566307 .08000183 .50049337 .092168178 .54148867 .116500858 .5824941 .14083354 .61516317 .17366536 .63949587 .21499634 .66382858 .2563273 .6759949 .30166117 .6759949 .35099793 .6759949 .4003347 .66382858 .4455007 .63949587 .48649598 .61516317 .5275014 .5824941 .5600026 .54148867 .58399966 .50049337 .60799667 .45566307 .6199951 .40699769 .6199951 .3583323 .6199951 .3131663 .60799667 .27149964 .58399966 .22983296 .5600026 .19666545 .5275014 .17199707 .48649598 .14732869 .4455007 .1349945 .4003347 .1349945 .35099793Z"/>
<path id="font_3_297" d="M.18099976 .28599549C.18099976 .22132874 .1988322 .17082723 .23449707 .13449097 .27016197 .09816488 .31933085 .08000183 .38200379 .08000183 .44400535 .08000183 .49267069 .09816488 .5279999 .13449097 .56332907 .17082723 .58099368 .22132874 .58099368 .28599549V.69999697H.67700198V.28599549C.67700198 .19466655 .65083315 .1230011 .5984955 .070999149 .546168 .018997193 .47400413-.007003784 .38200379-.007003784 .28933207-.007003784 .21666463 .018997193 .16400147 .070999149 .111338298 .1230011 .085006717 .19466655 .085006717 .28599549V.69999697H.18099976V.28599549Z"/>
<path id="font_3_142" d="M.1000061 .69999697H.19599915V0H.1000061V.69999697Z"/>
<path id="font_3_283" d="M.009994507 .69999697H.55700686V.6119995H.33099366V0H.23500061V.6119995H.009994507V.69999697Z"/>
<path id="font_3_75" d="M.1000061 .69999697H.58599856V.6130066H.19599915V.39700318H.54499819V.30999757H.19599915V.087005618H.5980072V0H.1000061V.69999697Z"/>
<path id="font_3_3" d=""/>
<path id="font_3_1390" d="M.598999-.01499939 .4850006 .09700012C.45366923 .06433614 .41983543 .03933716 .38349916 .022003174 .34716288 .0046691896 .30966188-.0039978029 .2709961-.0039978029 .23166912-.0039978029 .19566854 .004333496 .16299439 .020996094 .1303304 .037668867 .104497279 .060836793 .085494998 .09049988 .06650289 .120162967 .057006837 .15333049 .057006837 .19000244 .057006837 .23533122 .07083639 .27282716 .09849548 .30249024 .12616475 .33216349 .16433208 .3600006 .21299744 .3860016 .18900045 .41733299 .17133586 .4461619 .16000366 .4724884 .14867147 .49882508 .14300537 .52466329 .14300537 .55000308 .14300537 .59533187 .15933736 .6323293 .19200135 .6609955 .22466533 .6896617 .2669983 .70399478 .31900025 .70399478 .3689982 .70399478 .40966288 .69065859 .44099427 .6639862 .47233583 .63732406 .4880066 .6029968 .4880066 .56100466 .4880066 .53100588 .48016868 .5045064 .4644928 .48150636 .44882713 .45850627 .42915855 .43883769 .40548707 .4225006 .38182578 .40616355 .35199485 .3886617 .31599427 .36999513 .34932963 .33132936 .40299989 .2753296 .477005 .20199585 .5036672 .2426656 .526001 .28666688 .54400637 .33399964L.6060028 .28799439C.5853322 .2386678 .55999758 .19266765 .5299988 .1499939L.647995 .035003663 .598999-.01499939M.21899414 .5509949C.21899414 .51433309 .23799642 .47000123 .27600099 .41799928 .32066856 .44133506 .35450236 .46333314 .37750245 .48399354 .40050254 .5046641 .41200257 .5299988 .41200257 .55999758 .41200257 .58533737 .40366618 .6056722 .3869934 .6210022 .3703308 .6363322 .3480021 .6439972 .32000733 .6439972 .28933717 .6439972 .26483155 .63516238 .24649048 .6174927 .22815959 .5998332 .21899414 .57766726 .21899414 .5509949M.27400209 .067993167C.32933045 .067993167 .382665 .09466044 .43400575 .147995 .35533143 .22599793 .29499818 .28900147 .25300599 .33700563 .2156728 .31633506 .18683879 .29499818 .1665039 .272995 .14616902 .25100199 .13600159 .22533672 .13600159 .19599915 .13600159 .15866597 .14933269 .1279958 .17599488 .10398865 .20266724 .07999166 .2353363 .067993167 .27400209 .067993167Z"/>
<path id="font_3_199" d="M.5980072 .69999697H.69299319V0H.59599307L.19599915 .54200747V0H.1000061V.69999697H.19700623L.5980072 .15699768V.69999697Z"/>
<path id="font_3_221" d="M.40600587 .70599368C.4733378 .70599368 .53516647 .69032797 .5914917 .6589966 .64782717 .6276652 .69232687 .5848338 .72499087 .5305023 .757665 .47617088 .7740021 .41633607 .7740021 .35099793 .7740021 .28566996 .757665 .22550456 .72499087 .17050171 .69232687 .11549886 .64782717 .0721639 .5914917 .040496828 .53516647 .008829753 .4733378-.007003784 .40600587-.007003784 .33866374-.007003784 .27682496 .008829753 .2204895 .040496828 .16416423 .0721639 .11966451 .11549886 .08699036 .17050171 .054326375 .22550456 .037994386 .28566996 .037994386 .35099793 .037994386 .41633607 .054326375 .47617088 .08699036 .5305023 .11966451 .5848338 .16400147 .6276652 .22000122 .6589966 .27600099 .69032797 .33800254 .70599368 .40600587 .70599368M.40699769 .6199951C.3583323 .6199951 .3131663 .60799667 .27149964 .58399966 .22983296 .5600026 .19666545 .5275014 .17199707 .48649598 .14732869 .4455007 .1349945 .4003347 .1349945 .35099793 .1349945 .30166117 .14732869 .2563273 .17199707 .21499634 .19666545 .17366536 .22983296 .14083354 .27149964 .116500858 .3131663 .092168178 .3583323 .08000183 .40699769 .08000183 .45566307 .08000183 .50049337 .092168178 .54148867 .116500858 .5824941 .14083354 .61516317 .17366536 .63949587 .21499634 .66382858 .2563273 .6759949 .30166117 .6759949 .35099793 .6759949 .4003347 .66382858 .4455007 .63949587 .48649598 .61516317 .5275014 .5824941 .5600026 .54148867 .58399966 .50049337 .60799667 .45566307 .6199951 .40699769 .6199951Z"/>
<path id="font_3_268" d="M.5090027 .55400088C.4763387 .57467147 .44250489 .59016928 .40750123 .6004944 .37249757 .61082968 .34033204 .6159973 .31100465 .6159973 .27033488 .6159973 .23783367 .6081645 .21350098 .5924988 .18916829 .57683309 .17700196 .55533346 .17700196 .5279999 .17700196 .5033315 .18433126 .48316447 .19898987 .46749879 .21365865 .4518331 .23165894 .4394989 .25299073 .43049623 .27433268 .4215037 .30400086 .41100566 .34199525 .39900209 .389328 .38433329 .42766319 .3703308 .45700074 .35699464 .4863383 .3436686 .5113373 .32383729 .5319977 .2975006 .5526683 .27116395 .56300356 .23632813 .56300356 .19299317 .56300356 .1529948 .5521698 .117996219 .5305023 .08799744 .50883486 .057998659 .47850038 .03483073 .4394989 .018493653 .40049745 .002166748 .35566203-.005996704 .30499269-.005996704 .2536621-.005996704 .20366414 .004002889 .15499878 .024002076 .10633341 .044001264 .06433614 .07066854 .029006958 .104003909L.072006229 .18699646C.10533142 .15433248 .14282735 .12916565 .18449402 .11149597 .22616069 .093836467 .2666626 .085006717 .30599977 .085006717 .3526713 .085006717 .389506 .09417216 .4165039 .11250305 .4435018 .13083394 .45700074 .15566509 .45700074 .18699646 .45700074 .21166484 .44966636 .23199971 .43499757 .2480011 .42032878 .26400248 .40182496 .27666728 .37948609 .28599549 .35715739 .29533387 .32699586 .30566917 .28900147 .31700135 .24232991 .33099876 .20432537 .34466554 .1749878 .3580017 .1456604 .3713379 .12082926 .39100138 .100494388 .4169922 .08016968 .44299317 .070007327 .47733055 .070007327 .5200043 .070007327 .55733749 .080337528 .5903371 .100997928 .6190033 .121668498 .6476695 .15067037 .66966757 .18800354 .68499758 .22533672 .7003276 .2686666 .70799258 .31799317 .70799258 .3599955 .70799258 .40116374 .701828 .4414978 .6894989 .48183189 .6771698 .5176646 .66067 .548996 .6399994L.5090027 .55400088Z"/>
<clipPath id="clip_4">
<path transform="matrix(1,0,0,-1,0,1080)" d="M0 1080H1080V0H0Z"/>
</clipPath>
</defs>
<g inkscape:groupmode="layer" inkscape:label="Camada 1">
<g clip-path="url(#clip_1)">
<g clip-path="url(#clip_2)">
</g>
<path transform="matrix(1,0,0,-1,580.4326,609.4854)" d="M0 0C-8.323 19.466-16.647 38.932-24.971 58.397-33.507 38.778-42.042 19.158-50.577-.461-45.618 1.709-37.34 4.591-26.749 4.92-14.666 5.295-5.225 2.171 0 0M-27.738 64.623H-22.319L12.847-16.086H7.428C5.823-13.081 4.219-10.076 2.613-7.071-2.165-4.646-12.376-.268-25.942-.614-38.902-.945-48.521-5.425-53.19-7.994L-57.485-16.086H-62.904Z" fill="currentColor"/>
<path transform="matrix(1,0,0,-1,685.7109,609.4854)" d="M0 0C-8.324 19.466-16.647 38.932-24.972 58.397-33.507 38.778-42.043 19.158-50.578-.461-45.618 1.709-37.341 4.591-26.75 4.92-14.667 5.295-5.226 2.171 0 0M-27.739 64.623H-22.32L12.847-16.086H7.427L2.613-7.071C-2.166-4.646-12.376-.268-25.942-.614-38.902-.945-48.521-5.425-53.191-7.994-54.623-10.691-56.055-13.389-57.485-16.086H-62.905Z" fill="currentColor"/>
<path transform="matrix(1,0,0,-1,605.8867,498.7036)" d="M0 0C-8.324 19.465-16.647 38.931-24.972 58.397-33.507 38.777-42.042 19.158-50.578-.461-45.618 1.708-37.341 4.59-26.75 4.919-14.666 5.294-5.225 2.171 0 0M-27.739 64.622H-22.32L12.847-16.087H7.428C5.822-13.082 4.218-10.077 2.613-7.072-2.166-4.646-12.376-.269-25.942-.615-38.902-.946-48.521-5.425-53.191-7.994-54.623-10.692-56.055-13.389-57.485-16.087H-62.904Z" fill="currentColor"/>
<path transform="matrix(1,0,0,-1,419.0459,439.5)" d="M0 0H-34.589V5.418H40.009V0H5.419V-75.291H0Z" fill="currentColor"/>
<path transform="matrix(1,0,0,-1,472.1973,434.08149)" d="M0 0H5.419V-37.932H51.77V0H57.188V-80.709H51.77V-43.352H5.419V-80.709H0Z" fill="currentColor"/>
<path transform="matrix(1,0,0,-1,882.6309,498.7036)" d="M0 0C-8.324 19.465-16.647 38.931-24.972 58.397-33.507 38.777-42.043 19.158-50.578-.461-45.618 1.708-37.341 4.59-26.75 4.919-14.666 5.294-5.226 2.171 0 0M-27.739 64.622H-22.32L12.847-16.087H7.428C5.822-13.082 4.218-10.077 2.613-7.072-2.166-4.646-12.376-.269-25.942-.615-38.902-.946-48.521-5.425-53.191-7.994-54.623-10.692-56.055-13.389-57.485-16.087H-62.905Z" fill="currentColor"/>
<path transform="matrix(1,0,0,-1,631.5381,434.08149)" d="M0 0H5.419V-75.289H48.54V-80.709H0Z" fill="currentColor"/>
<path transform="matrix(1,0,0,-1,705.5889,486.6577)" d="M0 0-30.555 52.576H-24.329L2.651 5.65 29.746 52.576H35.973L5.419 0V-28.133H0Z" fill="currentColor"/>
<path transform="matrix(1,0,0,-1,787.2197,439.5)" d="M0 0H-34.589V5.418H40.009V0H5.42V-75.291H0Z" fill="currentColor"/>
<path transform="matrix(1,0,0,-1,418.9111,544.8623)" d="M0 0H5.419L43.697-74.252 81.746 0H87.28V-80.709H81.861V-11.645L46.35-80.709H40.931L5.419-11.761V-80.709H0Z" fill="currentColor"/>
<path transform="matrix(1,0,0,-1,0,1080)" d="M605.771 535.138H611.19V454.42903H605.771Z" fill="currentColor"/>
</g>
<use data-text="A" xlink:href="#font_3_4" transform="matrix(19.2582,0,0,-20,722.4551,591.7705)" fill="currentColor"/>
<use data-text="R" xlink:href="#font_3_260" transform="matrix(19.2582,0,0,-20,739.903,591.7705)" fill="currentColor"/>
<use data-text="Q" xlink:href="#font_3_258" transform="matrix(19.2582,0,0,-20,757.29318,591.7705)" fill="currentColor"/>
<use data-text="U" xlink:href="#font_3_297" transform="matrix(19.2582,0,0,-20,776.58987,591.7705)" fill="currentColor"/>
<use data-text="I" xlink:href="#font_3_142" transform="matrix(19.2582,0,0,-20,794.7311,591.7705)" fill="currentColor"/>
<use data-text="T" xlink:href="#font_3_283" transform="matrix(19.2582,0,0,-20,803.898,591.7705)" fill="currentColor"/>
<use data-text="E" xlink:href="#font_3_75" transform="matrix(19.2582,0,0,-20,818.2839,591.7705)" fill="currentColor"/>
<use data-text="T" xlink:href="#font_3_283" transform="matrix(19.2582,0,0,-20,834.3259,591.7705)" fill="currentColor"/>
<use data-text="U" xlink:href="#font_3_297" transform="matrix(19.2582,0,0,-20,848.7118,591.7705)" fill="currentColor"/>
<use data-text="R" xlink:href="#font_3_260" transform="matrix(19.2582,0,0,-20,866.853,591.7705)" fill="currentColor"/>
<use data-text="A" xlink:href="#font_3_4" transform="matrix(19.2582,0,0,-20,884.24319,591.7705)" fill="currentColor"/>
<use data-text=" " xlink:href="#font_3_3" transform="matrix(19.2582,0,0,-20,901.6911,591.7705)" fill="currentColor"/>
<use data-text="&amp;" xlink:href="#font_3_1390" transform="matrix(19.2582,0,0,-20,722.4551,615.7705)" fill="currentColor"/>
<use data-text=" " xlink:href="#font_3_3" transform="matrix(19.2582,0,0,-20,738.53567,615.7705)" fill="currentColor"/>
<use data-text="I" xlink:href="#font_3_142" transform="matrix(19.2582,0,0,-20,747.0478,615.7705)" fill="currentColor"/>
<use data-text="N" xlink:href="#font_3_199" transform="matrix(19.2582,0,0,-20,756.2147,615.7705)" fill="currentColor"/>
<use data-text="T" xlink:href="#font_3_283" transform="matrix(19.2582,0,0,-20,774.9722,615.7705)" fill="currentColor"/>
<use data-text="E" xlink:href="#font_3_75" transform="matrix(19.2582,0,0,-20,789.3581,615.7705)" fill="currentColor"/>
<use data-text="R" xlink:href="#font_3_260" transform="matrix(19.2582,0,0,-20,805.40017,615.7705)" fill="currentColor"/>
<use data-text="I" xlink:href="#font_3_142" transform="matrix(19.2582,0,0,-20,822.7903,615.7705)" fill="currentColor"/>
<use data-text="O" xlink:href="#font_3_221" transform="matrix(19.2582,0,0,-20,831.9572,615.7705)" fill="currentColor"/>
<use data-text="R" xlink:href="#font_3_260" transform="matrix(19.2582,0,0,-20,851.06137,615.7705)" fill="currentColor"/>
<use data-text="E" xlink:href="#font_3_75" transform="matrix(19.2582,0,0,-20,868.4515,615.7705)" fill="currentColor"/>
<use data-text="S" xlink:href="#font_3_268" transform="matrix(19.2582,0,0,-20,884.4935,615.7705)" fill="currentColor"/>
<g clip-path="url(#clip_4)">
<path transform="matrix(1,0,0,-1,238.6143,580.6621)" d="M0 0H33.816V-20.897H38.688V0H44.212 46.111L70.39-40.598H0ZM-63.945-40.598V18.029C-63.945 42.632-52.834 66.649-33.46 83.922-24.419 91.982-14.517 97.172-4.871 100.465V-40.598ZM38.688 77.61C55.695 73.692 68.385 59.265 69.335 42.22 70.212 26.507 60.837 11.561 45.963 4.871H44.212 38.688ZM0 78.361H33.816V4.871002H0ZM33.816 83.233H0V101.979C13.097 105.658 25.337 106.049 33.816 105.632ZM0 141.622H.129C21.2 140.486 59.668 134.181 81.092 104.753 93.862 87.21 98.61 70.042 98.61 41.411V-40.598H76.064L50.717 1.789C65.808 9.843 75.132 25.77 74.198 42.491 73.107 62.067 58.331 78.571 38.688 82.592V109.467H38.682L38.697 110.389 34.943 110.45C26.388 110.943 13.714 110.688 0 107.038ZM103.481 41.411C103.481 70.816 98.309 89.379 85.029 107.619 62.397 138.708 22.243 145.317 .322 146.49L.255 146.493-2.44 146.487H-4.871V105.606C-15.544 102.167-26.616 96.549-36.702 87.558-57.11 69.362-68.816 44.019-68.816 18.029V-40.598-44.651-45.469H-4.871V-65.257H0V-45.469H103.477V-44.771H103.481Z" fill="currentColor"/>
</g>
</g>
</svg>
